<?xml version="1.0" encoding="UTF-8" standalone="no"?>
<!DOCTYPE svg PUBLIC "-//W3C//DTD SVG 1.1//EN"
 "http://www.w3.org/Graphics/SVG/1.1/DTD/svg11.dtd">
<!-- Generated by graphviz version 2.40.1 (20161225.0304)
 -->
<!-- Title: %0 Pages: 1 -->
<svg width="450pt" height="594pt"
 viewBox="0.00 0.00 450.00 594.22" xmlns="http://www.w3.org/2000/svg" xmlns:xlink="http://www.w3.org/1999/xlink">
<g id="graph0" class="graph" transform="scale(1 1) rotate(0) translate(4 590.2222)">
<title>%0</title>
<g id="a_graph0"><a xlink:title="Survey data model">
<polygon fill="#ffffff" stroke="transparent" points="-4,4 -4,-590.2222 446,-590.2222 446,4 -4,4"/>
</a>
</g>
<!-- dictionary -->
<g id="dictionary" class="node">
<title>dictionary</title>
<polygon fill="#00008b" stroke="transparent" points="1,-565.2222 1,-585.2222 105,-585.2222 105,-565.2222 1,-565.2222"/>
<text text-anchor="start" x="24.6192" y="-570.6222" font-family="Times,serif" font-size="14.00" fill="#ffffff">dictionary</text>
<polygon fill="#cccce7" stroke="transparent" points="1,-545.2222 1,-565.2222 84,-565.2222 84,-545.2222 1,-545.2222"/>
<text text-anchor="start" x="2.8345" y="-550.6222" font-family="Times,serif" font-size="14.00" fill="#444444">question_num</text>
<polygon fill="#cccce7" stroke="transparent" points="84,-545.2222 84,-565.2222 105,-565.2222 105,-545.2222 84,-545.2222"/>
<text text-anchor="start" x="85.5547" y="-550.6222" font-family="Times,serif" font-size="14.00" fill="#444444">dbl</text>
<polygon fill="#cccce7" stroke="transparent" points="1,-525.2222 1,-545.2222 84,-545.2222 84,-525.2222 1,-525.2222"/>
<text text-anchor="start" x="3" y="-530.6222" font-family="Times,serif" font-size="14.00" fill="#444444">item_alpha</text>
<polygon fill="#cccce7" stroke="transparent" points="84,-525.2222 84,-545.2222 105,-545.2222 105,-525.2222 84,-525.2222"/>
<text text-anchor="start" x="85.5624" y="-530.6222" font-family="Times,serif" font-size="14.00" fill="#444444">chr</text>
<polygon fill="#cccce7" stroke="transparent" points="1,-505.2222 1,-525.2222 84,-525.2222 84,-505.2222 1,-505.2222"/>
<text text-anchor="start" x="3" y="-510.6222" font-family="Times,serif" font-size="14.00" fill="#444444">survey_order</text>
<polygon fill="#cccce7" stroke="transparent" points="84,-505.2222 84,-525.2222 105,-525.2222 105,-505.2222 84,-505.2222"/>
<text text-anchor="start" x="85.5624" y="-510.6222" font-family="Times,serif" font-size="14.00" fill="#444444">chr</text>
<polygon fill="#cccce7" stroke="transparent" points="1,-485.2222 1,-505.2222 84,-505.2222 84,-485.2222 1,-485.2222"/>
<text text-anchor="start" x="3" y="-490.6222" font-family="Times,serif" font-size="14.00" fill="#444444">item</text>
<polygon fill="#cccce7" stroke="transparent" points="84,-485.2222 84,-505.2222 105,-505.2222 105,-485.2222 84,-485.2222"/>
<text text-anchor="start" x="85.5624" y="-490.6222" font-family="Times,serif" font-size="14.00" fill="#444444">chr</text>
<polygon fill="#cccce7" stroke="transparent" points="1,-465.2222 1,-485.2222 84,-485.2222 84,-465.2222 1,-465.2222"/>
<text text-anchor="start" x="3" y="-470.6222" font-family="Times,serif" font-size="14.00" fill="#444444">label</text>
<polygon fill="#cccce7" stroke="transparent" points="84,-465.2222 84,-485.2222 105,-485.2222 105,-465.2222 84,-465.2222"/>
<text text-anchor="start" x="85.5624" y="-470.6222" font-family="Times,serif" font-size="14.00" fill="#444444">chr</text>
<polygon fill="#cccce7" stroke="transparent" points="1,-445.2222 1,-465.2222 84,-465.2222 84,-445.2222 1,-445.2222"/>
<text text-anchor="start" x="3" y="-450.6222" font-family="Times,serif" font-size="14.00" fill="#444444">response_set</text>
<polygon fill="#cccce7" stroke="transparent" points="84,-445.2222 84,-465.2222 105,-465.2222 105,-445.2222 84,-445.2222"/>
<text text-anchor="start" x="85.5624" y="-450.6222" font-family="Times,serif" font-size="14.00" fill="#444444">chr</text>
<polygon fill="#cccce7" stroke="transparent" points="1,-425.2222 1,-445.2222 84,-445.2222 84,-425.2222 1,-425.2222"/>
<text text-anchor="start" x="3" y="-430.6222" font-family="Times,serif" font-size="14.00" fill="#444444">question</text>
<polygon fill="#cccce7" stroke="transparent" points="84,-425.2222 84,-445.2222 105,-445.2222 105,-425.2222 84,-425.2222"/>
<text text-anchor="start" x="85.5624" y="-430.6222" font-family="Times,serif" font-size="14.00" fill="#444444">chr</text>
<polygon fill="#cccce7" stroke="transparent" points="1,-405.2222 1,-425.2222 84,-425.2222 84,-405.2222 1,-405.2222"/>
<text text-anchor="start" x="3" y="-410.6222" font-family="Times,serif" font-size="14.00" fill="#444444">instrument</text>
<polygon fill="#cccce7" stroke="transparent" points="84,-405.2222 84,-425.2222 105,-425.2222 105,-405.2222 84,-405.2222"/>
<text text-anchor="start" x="85.5624" y="-410.6222" font-family="Times,serif" font-size="14.00" fill="#444444">chr</text>
<polygon fill="#cccce7" stroke="transparent" points="1,-385.2222 1,-405.2222 84,-405.2222 84,-385.2222 1,-385.2222"/>
<text text-anchor="start" x="3" y="-390.6222" font-family="Times,serif" font-size="14.00" fill="#444444">response</text>
<polygon fill="#cccce7" stroke="transparent" points="84,-385.2222 84,-405.2222 105,-405.2222 105,-385.2222 84,-385.2222"/>
<text text-anchor="start" x="85.5624" y="-390.6222" font-family="Times,serif" font-size="14.00" fill="#444444">chr</text>
<polygon fill="#cccce7" stroke="transparent" points="1,-365.2222 1,-385.2222 84,-385.2222 84,-365.2222 1,-365.2222"/>
<text text-anchor="start" x="3" y="-370.6222" font-family="Times,serif" font-size="14.00" fill="#444444">value</text>
<polygon fill="#cccce7" stroke="transparent" points="84,-365.2222 84,-385.2222 105,-385.2222 105,-365.2222 84,-365.2222"/>
<text text-anchor="start" x="86" y="-370.6222" font-family="Times,serif" font-size="14.00" fill="#444444">int</text>
<polygon fill="none" stroke="#00005c" stroke-opacity="0.666667" points="0,-364.2222 0,-586.2222 106,-586.2222 106,-364.2222 0,-364.2222"/>
</g>
<!-- institutions -->
<g id="institutions" class="node">
<title>institutions</title>
<polygon fill="#90ee90" stroke="transparent" points="375,-445.2222 375,-465.2222 441,-465.2222 441,-445.2222 375,-445.2222"/>
<text text-anchor="start" x="376.8836" y="-450.6222" font-family="Times,serif" font-size="14.00" fill="#000000">institutions</text>
<polygon fill="#e8fbe8" stroke="transparent" points="375,-425.2222 375,-445.2222 419,-445.2222 419,-425.2222 375,-425.2222"/>
<text text-anchor="start" x="377" y="-431.6222" font-family="Times,serif" text-decoration="underline" font-size="14.00" fill="#444444">unitid</text>
<polygon fill="#e8fbe8" stroke="transparent" points="419,-425.2222 419,-445.2222 441,-445.2222 441,-425.2222 419,-425.2222"/>
<text text-anchor="start" x="421" y="-430.6222" font-family="Times,serif" font-size="14.00" fill="#444444">int</text>
<polygon fill="#e8fbe8" stroke="transparent" points="375,-405.2222 375,-425.2222 419,-425.2222 419,-405.2222 375,-405.2222"/>
<text text-anchor="start" x="377" y="-410.6222" font-family="Times,serif" font-size="14.00" fill="#444444">name</text>
<polygon fill="#e8fbe8" stroke="transparent" points="419,-405.2222 419,-425.2222 441,-425.2222 441,-405.2222 419,-405.2222"/>
<text text-anchor="start" x="421" y="-410.6222" font-family="Times,serif" font-size="14.00" fill="#444444">chr</text>
<polygon fill="#e8fbe8" stroke="transparent" points="375,-385.2222 375,-405.2222 419,-405.2222 419,-385.2222 375,-385.2222"/>
<text text-anchor="start" x="377" y="-390.6222" font-family="Times,serif" font-size="14.00" fill="#444444">control</text>
<polygon fill="#e8fbe8" stroke="transparent" points="419,-385.2222 419,-405.2222 441,-405.2222 441,-385.2222 419,-385.2222"/>
<text text-anchor="start" x="421" y="-390.6222" font-family="Times,serif" font-size="14.00" fill="#444444">chr</text>
<polygon fill="#e8fbe8" stroke="transparent" points="375,-365.2222 375,-385.2222 419,-385.2222 419,-365.2222 375,-365.2222"/>
<text text-anchor="start" x="377" y="-370.6222" font-family="Times,serif" font-size="14.00" fill="#444444">region</text>
<polygon fill="#e8fbe8" stroke="transparent" points="419,-365.2222 419,-385.2222 441,-385.2222 441,-365.2222 419,-365.2222"/>
<text text-anchor="start" x="421" y="-370.6222" font-family="Times,serif" font-size="14.00" fill="#444444">chr</text>
<polygon fill="none" stroke="#609e60" stroke-opacity="0.666667" points="374,-364.2222 374,-466.2222 442,-466.2222 442,-364.2222 374,-364.2222"/>
</g>
<!-- item_groupings -->
<g id="item_groupings" class="node">
<title>item_groupings</title>
<polygon fill="#add8e6" stroke="transparent" points="168.5,-328.2222 168.5,-348.2222 259.5,-348.2222 259.5,-328.2222 168.5,-328.2222"/>
<text text-anchor="start" x="170.0589" y="-333.6222" font-family="Times,serif" font-size="14.00" fill="#000000">item_groupings</text>
<polygon fill="#eef7fa" stroke="transparent" points="168.5,-308.2222 168.5,-328.2222 230.5,-328.2222 230.5,-308.2222 168.5,-308.2222"/>
<text text-anchor="start" x="170.5" y="-313.6222" font-family="Times,serif" font-size="14.00" fill="#444444">item</text>
<polygon fill="#eef7fa" stroke="transparent" points="230.5,-308.2222 230.5,-328.2222 259.5,-328.2222 259.5,-308.2222 230.5,-308.2222"/>
<text text-anchor="start" x="232.5" y="-313.6222" font-family="Times,serif" font-size="14.00" fill="#444444">chr</text>
<polygon fill="#eef7fa" stroke="transparent" points="168.5,-288.2222 168.5,-308.2222 230.5,-308.2222 230.5,-288.2222 168.5,-288.2222"/>
<text text-anchor="start" x="170.5" y="-293.6222" font-family="Times,serif" font-size="14.00" fill="#444444">grouping</text>
<polygon fill="#eef7fa" stroke="transparent" points="230.5,-288.2222 230.5,-308.2222 259.5,-308.2222 259.5,-288.2222 230.5,-288.2222"/>
<text text-anchor="start" x="232.5" y="-293.6222" font-family="Times,serif" font-size="14.00" fill="#444444">chr</text>
<polygon fill="#eef7fa" stroke="transparent" points="168.5,-268.2222 168.5,-288.2222 230.5,-288.2222 230.5,-268.2222 168.5,-268.2222"/>
<text text-anchor="start" x="170.5" y="-273.6222" font-family="Times,serif" font-size="14.00" fill="#444444">audience</text>
<polygon fill="#eef7fa" stroke="transparent" points="230.5,-268.2222 230.5,-288.2222 259.5,-288.2222 259.5,-268.2222 230.5,-268.2222"/>
<text text-anchor="start" x="232.5" y="-273.6222" font-family="Times,serif" font-size="14.00" fill="#444444">chr</text>
<polygon fill="none" stroke="#739099" stroke-opacity="0.666667" points="167,-267.2222 167,-349.2222 260,-349.2222 260,-267.2222 167,-267.2222"/>
</g>
<!-- items -->
<g id="items" class="node">
<title>items</title>
<polygon fill="#add8e6" stroke="transparent" points="337,-288.2222 337,-308.2222 441,-308.2222 441,-288.2222 337,-288.2222"/>
<text text-anchor="start" x="373.8345" y="-293.6222" font-family="Times,serif" font-size="14.00" fill="#000000">items</text>
<polygon fill="#eef7fa" stroke="transparent" points="337,-268.2222 337,-288.2222 420,-288.2222 420,-268.2222 337,-268.2222"/>
<text text-anchor="start" x="338.8345" y="-273.6222" font-family="Times,serif" font-size="14.00" fill="#444444">question_num</text>
<polygon fill="#eef7fa" stroke="transparent" points="420,-268.2222 420,-288.2222 441,-288.2222 441,-268.2222 420,-268.2222"/>
<text text-anchor="start" x="421.5547" y="-273.6222" font-family="Times,serif" font-size="14.00" fill="#444444">dbl</text>
<polygon fill="#eef7fa" stroke="transparent" points="337,-248.2222 337,-268.2222 420,-268.2222 420,-248.2222 337,-248.2222"/>
<text text-anchor="start" x="339" y="-253.6222" font-family="Times,serif" font-size="14.00" fill="#444444">item_alpha</text>
<polygon fill="#eef7fa" stroke="transparent" points="420,-248.2222 420,-268.2222 441,-268.2222 441,-248.2222 420,-248.2222"/>
<text text-anchor="start" x="421.5624" y="-253.6222" font-family="Times,serif" font-size="14.00" fill="#444444">chr</text>
<polygon fill="#eef7fa" stroke="transparent" points="337,-228.2222 337,-248.2222 420,-248.2222 420,-228.2222 337,-228.2222"/>
<text text-anchor="start" x="339" y="-233.6222" font-family="Times,serif" font-size="14.00" fill="#444444">survey_order</text>
<polygon fill="#eef7fa" stroke="transparent" points="420,-228.2222 420,-248.2222 441,-248.2222 441,-228.2222 420,-228.2222"/>
<text text-anchor="start" x="421.5624" y="-233.6222" font-family="Times,serif" font-size="14.00" fill="#444444">chr</text>
<polygon fill="#eef7fa" stroke="transparent" points="337,-208.2222 337,-228.2222 420,-228.2222 420,-208.2222 337,-208.2222"/>
<text text-anchor="start" x="339" y="-214.6222" font-family="Times,serif" text-decoration="underline" font-size="14.00" fill="#444444">item</text>
<polygon fill="#eef7fa" stroke="transparent" points="420,-208.2222 420,-228.2222 441,-228.2222 441,-208.2222 420,-208.2222"/>
<text text-anchor="start" x="421.5624" y="-213.6222" font-family="Times,serif" font-size="14.00" fill="#444444">chr</text>
<polygon fill="#eef7fa" stroke="transparent" points="337,-188.2222 337,-208.2222 420,-208.2222 420,-188.2222 337,-188.2222"/>
<text text-anchor="start" x="339" y="-193.6222" font-family="Times,serif" font-size="14.00" fill="#444444">label</text>
<polygon fill="#eef7fa" stroke="transparent" points="420,-188.2222 420,-208.2222 441,-208.2222 441,-188.2222 420,-188.2222"/>
<text text-anchor="start" x="421.5624" y="-193.6222" font-family="Times,serif" font-size="14.00" fill="#444444">chr</text>
<polygon fill="#eef7fa" stroke="transparent" points="337,-168.2222 337,-188.2222 420,-188.2222 420,-168.2222 337,-168.2222"/>
<text text-anchor="start" x="339" y="-173.6222" font-family="Times,serif" font-size="14.00" fill="#444444">response_set</text>
<polygon fill="#eef7fa" stroke="transparent" points="420,-168.2222 420,-188.2222 441,-188.2222 441,-168.2222 420,-168.2222"/>
<text text-anchor="start" x="421.5624" y="-173.6222" font-family="Times,serif" font-size="14.00" fill="#444444">chr</text>
<polygon fill="none" stroke="#739099" stroke-opacity="0.666667" points="336,-167.2222 336,-309.2222 442,-309.2222 442,-167.2222 336,-167.2222"/>
</g>
<!-- item_groupings&#45;&gt;items -->
<g id="item_groupings_1" class="edge">
<title>item_groupings:item&#45;&gt;items:item</title>
<path fill="none" stroke="#555555" d="M168.5,-318.2222C168.5,-318.2222 260,-349.2222 260,-349.2222 286.3324,-334.1557 300.2456,-240.4199 327.2886,-221.5353"/>
<polygon fill="#555555" stroke="#555555" points="328.6657,-224.7636 337,-218.2222 326.4055,-218.1386 328.6657,-224.7636"/>
</g>
<!-- questions -->
<g id="questions" class="node">
<title>questions</title>
<polygon fill="#add8e6" stroke="transparent" points="128.5,-228.2222 128.5,-248.2222 299.5,-248.2222 299.5,-228.2222 128.5,-228.2222"/>
<text text-anchor="start" x="187.5575" y="-233.6222" font-family="Times,serif" font-size="14.00" fill="#000000">questions</text>
<polygon fill="#eef7fa" stroke="transparent" points="128.5,-208.2222 128.5,-228.2222 278.5,-228.2222 278.5,-208.2222 128.5,-208.2222"/>
<text text-anchor="start" x="130.5" y="-213.6222" font-family="Times,serif" font-size="14.00" fill="#444444">question_num</text>
<polygon fill="#eef7fa" stroke="transparent" points="278.5,-208.2222 278.5,-228.2222 299.5,-228.2222 299.5,-208.2222 278.5,-208.2222"/>
<text text-anchor="start" x="280.5" y="-213.6222" font-family="Times,serif" font-size="14.00" fill="#444444">int</text>
<polygon fill="#eef7fa" stroke="transparent" points="128.5,-188.2222 128.5,-208.2222 278.5,-208.2222 278.5,-188.2222 128.5,-188.2222"/>
<text text-anchor="start" x="130.5" y="-193.6222" font-family="Times,serif" font-size="14.00" fill="#444444">question</text>
<polygon fill="#eef7fa" stroke="transparent" points="278.5,-188.2222 278.5,-208.2222 299.5,-208.2222 299.5,-188.2222 278.5,-188.2222"/>
<text text-anchor="start" x="280.0624" y="-193.6222" font-family="Times,serif" font-size="14.00" fill="#444444">chr</text>
<polygon fill="#eef7fa" stroke="transparent" points="128.5,-168.2222 128.5,-188.2222 278.5,-188.2222 278.5,-168.2222 128.5,-168.2222"/>
<text text-anchor="start" x="130.5" y="-173.6222" font-family="Times,serif" font-size="14.00" fill="#444444">instrument</text>
<polygon fill="#eef7fa" stroke="transparent" points="278.5,-168.2222 278.5,-188.2222 299.5,-188.2222 299.5,-168.2222 278.5,-168.2222"/>
<text text-anchor="start" x="280.0624" y="-173.6222" font-family="Times,serif" font-size="14.00" fill="#444444">chr</text>
<polygon fill="#eef7fa" stroke="transparent" points="128.5,-148.2222 128.5,-168.2222 278.5,-168.2222 278.5,-148.2222 128.5,-148.2222"/>
<text text-anchor="start" x="130.5" y="-153.6222" font-family="Times,serif" font-size="14.00" fill="#444444">response_set</text>
<polygon fill="#eef7fa" stroke="transparent" points="278.5,-148.2222 278.5,-168.2222 299.5,-168.2222 299.5,-148.2222 278.5,-148.2222"/>
<text text-anchor="start" x="280.0624" y="-153.6222" font-family="Times,serif" font-size="14.00" fill="#444444">chr</text>
<polygon fill="#eef7fa" stroke="transparent" points="128.5,-128.2222 128.5,-148.2222 278.5,-148.2222 278.5,-128.2222 128.5,-128.2222"/>
<text text-anchor="start" x="130.3934" y="-134.6222" font-family="Times,serif" text-decoration="underline" font-size="14.00" fill="#444444">instrument, question_num</text>
<polygon fill="#eef7fa" stroke="transparent" points="278.5,-128.2222 278.5,-148.2222 299.5,-148.2222 299.5,-128.2222 278.5,-128.2222"/>
<polygon fill="none" stroke="#739099" stroke-opacity="0.666667" points="127,-127.2222 127,-249.2222 300,-249.2222 300,-127.2222 127,-127.2222"/>
</g>
<!-- questions&#45;&gt;items -->
<g id="questions_1" class="edge">
<title>questions:question_num&#45;&gt;items:item</title>
<path fill="none" stroke="#555555" d="M128.5,-218.2222C128.5,-218.2222 300,-249.2222 300,-249.2222 316.2243,-243.3239 316.4044,-226.845 327.0342,-220.6329"/>
<polygon fill="#555555" stroke="#555555" points="328.1033,-223.9754 337,-218.2222 326.4574,-217.1716 328.1033,-223.9754"/>
</g>
<!-- respondents -->
<g id="respondents" class="node">
<title>respondents</title>
<polygon fill="#ffa07a" stroke="transparent" points="267,-465.2222 267,-485.2222 337,-485.2222 337,-465.2222 267,-465.2222"/>
<text text-anchor="start" x="268.5652" y="-470.6222" font-family="Times,serif" font-size="14.00" fill="#000000">respondents</text>
<polygon fill="#ffece4" stroke="transparent" points="267,-445.2222 267,-465.2222 309,-465.2222 309,-445.2222 267,-445.2222"/>
<text text-anchor="start" x="269" y="-451.6222" font-family="Times,serif" text-decoration="underline" font-size="14.00" fill="#444444">id</text>
<polygon fill="#ffece4" stroke="transparent" points="309,-445.2222 309,-465.2222 337,-465.2222 337,-445.2222 309,-445.2222"/>
<text text-anchor="start" x="311" y="-450.6222" font-family="Times,serif" font-size="14.00" fill="#444444">int</text>
<polygon fill="#ffece4" stroke="transparent" points="267,-425.2222 267,-445.2222 309,-445.2222 309,-425.2222 267,-425.2222"/>
<text text-anchor="start" x="269" y="-430.6222" font-family="Times,serif" font-size="14.00" fill="#444444">unitid</text>
<polygon fill="#ffece4" stroke="transparent" points="309,-425.2222 309,-445.2222 337,-445.2222 337,-425.2222 309,-425.2222"/>
<text text-anchor="start" x="311" y="-430.6222" font-family="Times,serif" font-size="14.00" fill="#444444">int</text>
<polygon fill="#ffece4" stroke="transparent" points="267,-405.2222 267,-425.2222 309,-425.2222 309,-405.2222 267,-405.2222"/>
<text text-anchor="start" x="269" y="-410.6222" font-family="Times,serif" font-size="14.00" fill="#444444">sex</text>
<polygon fill="#ffece4" stroke="transparent" points="309,-405.2222 309,-425.2222 337,-425.2222 337,-405.2222 309,-405.2222"/>
<text text-anchor="start" x="311" y="-410.6222" font-family="Times,serif" font-size="14.00" fill="#444444">chr</text>
<polygon fill="#ffece4" stroke="transparent" points="267,-385.2222 267,-405.2222 309,-405.2222 309,-385.2222 267,-385.2222"/>
<text text-anchor="start" x="269" y="-390.6222" font-family="Times,serif" font-size="14.00" fill="#444444">class</text>
<polygon fill="#ffece4" stroke="transparent" points="309,-385.2222 309,-405.2222 337,-405.2222 337,-385.2222 309,-385.2222"/>
<text text-anchor="start" x="311" y="-390.6222" font-family="Times,serif" font-size="14.00" fill="#444444">chr</text>
<polygon fill="none" stroke="#aa6a51" stroke-opacity="0.666667" points="266,-384.2222 266,-486.2222 338,-486.2222 338,-384.2222 266,-384.2222"/>
</g>
<!-- respondents&#45;&gt;institutions -->
<g id="respondents_1" class="edge">
<title>respondents:unitid&#45;&gt;institutions:unitid</title>
<path fill="none" stroke="#555555" d="M267,-435.2222C244.3333,-435.2222 250.9722,-470.1945 267,-486.2222 289.3131,-508.5354 309.8887,-500.5578 338,-486.2222 359.2439,-475.3887 350.8306,-446.0229 365.1576,-437.5437"/>
<polygon fill="#555555" stroke="#555555" points="366.0706,-440.9244 375,-435.2222 364.4636,-434.1114 366.0706,-440.9244"/>
</g>
<!-- response_options -->
<g id="response_options" class="node">
<title>response_options</title>
<polygon fill="#add8e6" stroke="transparent" points="163.5,-88.2222 163.5,-108.2222 264.5,-108.2222 264.5,-88.2222 163.5,-88.2222"/>
<text text-anchor="start" x="165.3976" y="-93.6222" font-family="Times,serif" font-size="14.00" fill="#000000">response_options</text>
<polygon fill="#eef7fa" stroke="transparent" points="163.5,-68.2222 163.5,-88.2222 240.5,-88.2222 240.5,-68.2222 163.5,-68.2222"/>
<text text-anchor="start" x="165.5" y="-73.6222" font-family="Times,serif" font-size="14.00" fill="#444444">response</text>
<polygon fill="#eef7fa" stroke="transparent" points="240.5,-68.2222 240.5,-88.2222 264.5,-88.2222 264.5,-68.2222 240.5,-68.2222"/>
<text text-anchor="start" x="242.5" y="-73.6222" font-family="Times,serif" font-size="14.00" fill="#444444">chr</text>
<polygon fill="#eef7fa" stroke="transparent" points="163.5,-48.2222 163.5,-68.2222 240.5,-68.2222 240.5,-48.2222 163.5,-48.2222"/>
<text text-anchor="start" x="165.5" y="-53.6222" font-family="Times,serif" font-size="14.00" fill="#444444">value</text>
<polygon fill="#eef7fa" stroke="transparent" points="240.5,-48.2222 240.5,-68.2222 264.5,-68.2222 264.5,-48.2222 240.5,-48.2222"/>
<text text-anchor="start" x="242.5" y="-53.6222" font-family="Times,serif" font-size="14.00" fill="#444444">int</text>
<polygon fill="#eef7fa" stroke="transparent" points="163.5,-28.2222 163.5,-48.2222 240.5,-48.2222 240.5,-28.2222 163.5,-28.2222"/>
<text text-anchor="start" x="165.5" y="-33.6222" font-family="Times,serif" font-size="14.00" fill="#444444">response_set</text>
<polygon fill="#eef7fa" stroke="transparent" points="240.5,-28.2222 240.5,-48.2222 264.5,-48.2222 264.5,-28.2222 240.5,-28.2222"/>
<text text-anchor="start" x="242.5" y="-33.6222" font-family="Times,serif" font-size="14.00" fill="#444444">chr</text>
<polygon fill="none" stroke="#739099" stroke-opacity="0.666667" points="162,-27.2222 162,-109.2222 265,-109.2222 265,-27.2222 162,-27.2222"/>
</g>
<!-- response_options&#45;&gt;items -->
<g id="response_options_1" class="edge">
<title>response_options:response_set&#45;&gt;items:item</title>
<path fill="none" stroke="#555555" d="M201.5,-28.2222C201.5,0 241.7064,-12.2879 265,-28.2222 300.4231,-52.454 284.7752,-78.0952 300,-118.2222 315.4318,-158.8948 293.7772,-209.1617 326.7781,-217.135"/>
<polygon fill="#555555" stroke="#555555" points="326.6859,-220.6448 337,-218.2222 327.4263,-213.6841 326.6859,-220.6448"/>
</g>
<!-- responses -->
<g id="responses" class="node">
<title>responses</title>
<polygon fill="#ffa07a" stroke="transparent" points="162.5,-465.2222 162.5,-485.2222 229.5,-485.2222 229.5,-465.2222 162.5,-465.2222"/>
<text text-anchor="start" x="168.7882" y="-470.6222" font-family="Times,serif" font-size="14.00" fill="#000000">responses</text>
<polygon fill="#ffece4" stroke="transparent" points="162.5,-445.2222 162.5,-465.2222 208.5,-465.2222 208.5,-445.2222 162.5,-445.2222"/>
<text text-anchor="start" x="164.5" y="-450.6222" font-family="Times,serif" font-size="14.00" fill="#444444">id</text>
<polygon fill="#ffece4" stroke="transparent" points="208.5,-445.2222 208.5,-465.2222 229.5,-465.2222 229.5,-445.2222 208.5,-445.2222"/>
<text text-anchor="start" x="210.5" y="-450.6222" font-family="Times,serif" font-size="14.00" fill="#444444">int</text>
<polygon fill="#ffece4" stroke="transparent" points="162.5,-425.2222 162.5,-445.2222 208.5,-445.2222 208.5,-425.2222 162.5,-425.2222"/>
<text text-anchor="start" x="164.5" y="-430.6222" font-family="Times,serif" font-size="14.00" fill="#444444">item</text>
<polygon fill="#ffece4" stroke="transparent" points="208.5,-425.2222 208.5,-445.2222 229.5,-445.2222 229.5,-425.2222 208.5,-425.2222"/>
<text text-anchor="start" x="210.0624" y="-430.6222" font-family="Times,serif" font-size="14.00" fill="#444444">chr</text>
<polygon fill="#ffece4" stroke="transparent" points="162.5,-405.2222 162.5,-425.2222 208.5,-425.2222 208.5,-405.2222 162.5,-405.2222"/>
<text text-anchor="start" x="164.5" y="-410.6222" font-family="Times,serif" font-size="14.00" fill="#444444">value</text>
<polygon fill="#ffece4" stroke="transparent" points="208.5,-405.2222 208.5,-425.2222 229.5,-425.2222 229.5,-405.2222 208.5,-405.2222"/>
<text text-anchor="start" x="210.5" y="-410.6222" font-family="Times,serif" font-size="14.00" fill="#444444">int</text>
<polygon fill="#ffece4" stroke="transparent" points="162.5,-385.2222 162.5,-405.2222 208.5,-405.2222 208.5,-385.2222 162.5,-385.2222"/>
<text text-anchor="start" x="164.1115" y="-391.6222" font-family="Times,serif" text-decoration="underline" font-size="14.00" fill="#444444">id, item</text>
<polygon fill="#ffece4" stroke="transparent" points="208.5,-385.2222 208.5,-405.2222 229.5,-405.2222 229.5,-385.2222 208.5,-385.2222"/>
<polygon fill="none" stroke="#aa6a51" stroke-opacity="0.666667" points="161,-384.2222 161,-486.2222 230,-486.2222 230,-384.2222 161,-384.2222"/>
</g>
<!-- responses&#45;&gt;respondents -->
<g id="responses_1" class="edge">
<title>responses:id&#45;&gt;respondents:id</title>
<path fill="none" stroke="#555555" d="M162.5,-455.2222C148.7222,-455.2222 152.7576,-476.4799 162.5,-486.2222 183.7132,-507.4354 201.8054,-496.4724 230,-486.2222 246.2243,-480.3239 246.4044,-463.845 257.0342,-457.6329"/>
<polygon fill="#555555" stroke="#555555" points="258.1033,-460.9754 267,-455.2222 256.4574,-454.1716 258.1033,-460.9754"/>
</g>
</g>
</svg>

